IKResults
version=1
nRows=7
nColumns=63
inDegrees=yes

Units are S.I. units (second, meters, Newtons, ...)
If the header above contains a line with 'inDegrees', this indicates whether rotational values are in degrees (yes) or radians (no).

endheader
time	pelvis_tilt	pelvis_list	pelvis_rotation	pelvis_tx	pelvis_ty	pelvis_tz	hip_flexion_r	hip_adduction_r	hip_rotation_r	knee_angle_r	knee_angle_r_beta	ankle_angle_r	subtalar_angle_r	mtp_angle_r	hip_flexion_l	hip_adduction_l	hip_rotation_l	knee_angle_l	knee_angle_l_beta	ankle_angle_l	subtalar_angle_l	mtp_angle_l	L5_S1_Flex_Ext	L5_S1_Lat_Bending	L5_S1_axial_rotation	L4_L5_Flex_Ext	L4_L5_Lat_Bending	L4_L5_axial_rotation	L3_L4_Flex_Ext	L3_L4_Lat_Bending	L3_L4_axial_rotation	L2_L3_Flex_Ext	L2_L3_Lat_Bending	L2_L3_axial_rotation	L1_L2_Flex_Ext	L1_L2_Lat_Bending	L1_L2_axial_rotation	L1_T12_Flex_Ext	L1_T12_Lat_Bending	L1_T12_axial_rotation	Abs_r3	Abs_r2	Abs_r1	Abs_t1	Abs_t2	neck_flexion	neck_bending	neck_rotation	arm_flex_r	arm_add_r	arm_rot_r	elbow_flex_r	pro_sup_r	wrist_flex_r	wrist_dev_r	arm_flex_l	arm_add_l	arm_rot_l	elbow_flex_l	pro_sup_l	wrist_flex_l	wrist_dev_l
      6.03333333	     -3.43143813	     -6.34851994	     26.32713903	      0.03541769	      0.93977857	     -0.69412788	      0.38925563	     -1.44209777	     -3.40366987	      5.18964472	      0.09057639	     11.71294039	      2.59499730	      0.00000000	     -0.94555996	    -10.59094745	    -19.59415017	      6.57556310	      0.11476523	     14.75483000	    -13.00650476	      0.00000000	      1.16033378	      0.43854215	     -0.68257787	      2.15485586	      0.58326106	     -0.72523899	      1.90631236	      1.06627139	     -0.72523899	      1.32614547	      1.06627139	     -0.59725564	      1.07748595	      0.89427516	     -0.55459452	      0.66301472	      0.67930179	     -0.51193341	      8.28814814	      4.96087654	     -3.79629336	      0.00000000	      0.00000000	     22.87442519	      1.42772002	      3.57084887	     -4.63639569	    -14.04752706	     10.58013873	     23.15465765	     89.99559364	      0.00000000	      0.00000000	    -13.95952756	     -6.58799635	    -29.60810109	     28.52725446	     89.99559364	      0.00000000	      0.00000000
      6.06666667	     -3.40356797	     -6.34438985	     26.33799007	      0.03537575	      0.93978113	     -0.69422602	      0.36858499	     -1.44628117	     -3.40026359	      5.19633177	      0.09069310	     11.71808994	      2.59681480	      0.00000000	     -0.96130980	    -10.59889778	    -19.61813002	      6.57134896	      0.11469168	     14.72828077	    -12.99350879	      0.00000000	      1.15937283	      0.43895507	     -0.67788575	      2.15307129	      0.58381024	     -0.72025360	      1.90473363	      1.06727535	     -0.72025360	      1.32504721	      1.06727535	     -0.59315003	      1.07659361	      0.89511717	     -0.55078217	      0.66246564	      0.67994140	     -0.50841431	      8.28128422	      4.96554750	     -3.77019715	      0.00000000	      0.00000000	     22.86267635	      1.43765176	      3.55593064	     -4.61201173	    -14.12508314	     10.55309090	     23.15437789	     89.99559364	      0.00000000	      0.00000000	    -14.03944247	     -6.69200103	    -29.59099716	     28.55613461	     89.99559364	      0.00000000	      0.00000000
      6.10000000	     -3.28773817	     -6.03884920	     25.71993756	      0.03607810	      0.94005861	     -0.69341810	      0.23218849	     -1.68982358	     -3.14275546	      5.31715641	      0.09280189	     12.03321603	      3.09006660	      0.00000000	     -1.60511000	    -10.36420435	    -22.05884150	      6.18393219	      0.10792998	     14.95222142	    -10.65193416	      0.00000000	      1.11808678	      0.41509729	     -0.56198375	      2.07639896	      0.55207940	     -0.59710773	      1.83690477	      1.00926755	     -0.59710773	      1.27786138	      1.00926755	     -0.49173578	      1.03825539	      0.84646639	     -0.45661180	      0.63887479	      0.64298570	     -0.42148781	      7.98638207	      4.69566356	     -3.12558502	      0.00000000	      0.00000000	     22.94039850	      1.47232187	      3.25591828	     -4.77236273	    -13.69365775	      7.98392565	     23.39431508	     89.99559364	      0.00000000	      0.00000000	    -14.60510696	     -8.08037583	    -23.31573980	     29.11608350	     89.99559364	      0.00000000	      0.00000000
      6.13333333	     -3.26164751	     -6.01315828	     25.67151191	      0.03614841	      0.94004515	     -0.69334190	      0.22981150	     -1.69619451	     -3.17779117	      5.38225934	      0.09393815	     12.10992959	      3.07219623	      0.00000000	     -1.65982504	    -10.35967219	    -22.24521331	      6.16845272	      0.10765981	     14.85867113	    -10.64187697	      0.00000000	      1.11436150	      0.41334896	     -0.56986248	      2.06948075	      0.54975411	     -0.60547889	      1.83078451	      1.00501666	     -0.60547889	      1.27360376	      1.00501666	     -0.49862967	      1.03479609	      0.84290120	     -0.46301327	      0.63674616	      0.64027754	     -0.42739686	      7.95977277	      4.67588609	     -3.16940416	      0.00000000	      0.00000000	     22.85588331	      1.50657522	      3.25641359	     -4.67228632	    -13.72019342	      7.88192080	     23.42112697	     89.99559364	      0.00000000	      0.00000000	    -14.75542166	     -8.12234132	    -23.33086102	     29.21787405	     89.99559364	      0.00000000	      0.00000000
      6.16666667	     -3.26554106	     -6.00069531	     25.67626434	      0.03615170	      0.93999814	     -0.69336075	      0.22954930	     -1.70681663	     -3.17820283	      5.39440069	      0.09415005	     12.11209037	      3.06954964	      0.00000000	     -1.65956801	    -10.36180654	    -22.24228166	      6.17729177	      0.10781408	     14.85087917	    -10.63168142	      0.00000000	      1.11559146	      0.41161268	     -0.56702282	      2.07176491	      0.54744487	     -0.60246175	      1.83280522	      1.00079508	     -0.60246175	      1.27500949	      1.00079508	     -0.49614497	      1.03593823	      0.83936059	     -0.46070604	      0.63744896	      0.63758805	     -0.42526712	      7.96855827	      4.65624501	     -3.15361084	      0.00000000	      0.00000000	     22.83569126	      1.50670770	      3.25678296	     -4.63178697	    -13.76325791	      7.86749924	     23.42673428	     89.99559364	      0.00000000	      0.00000000	    -14.77149856	     -8.12939044	    -23.33288048	     29.22199066	     89.99559364	      0.00000000	      0.00000000
      6.20000000	     -3.29700314	     -5.86543392	     25.06461911	      0.03629211	      0.94005456	     -0.69265566	      0.43070205	     -1.89286885	     -3.14716477	      5.69159332	      0.09933704	     12.36319853	      3.80361316	      0.00000000	     -1.94694455	    -10.22839556	    -24.03626774	      6.02555585	      0.10516579	     15.10825226	     -8.91120351	      0.00000000	      1.10413381	      0.40475830	     -0.46829770	      2.05048690	      0.53832853	     -0.49756630	      1.81398144	      0.98412932	     -0.49756630	      1.26191453	      0.98412932	     -0.40976048	      1.02529866	      0.82538312	     -0.38049188	      0.63090206	      0.62697060	     -0.35122327	      7.88671739	      4.57870680	     -2.60453130	      0.00000000	      0.00000000	     22.70119721	      1.56340452	      3.42033646	     -4.74885285	    -13.27947961	      4.26238470	     23.65282154	     89.99559364	      0.00000000	      0.00000000	    -14.83456165	     -7.98627669	    -23.97910521	     29.46884942	     89.99559364	      0.00000000	      0.00000000
      6.23333333	     -3.32359544	     -5.84672176	     25.02461372	      0.03619556	      0.94000964	     -0.69262128	      0.45428773	     -1.91670375	     -3.14072449	      5.69007386	      0.09931052	     12.35247879	      3.80397358	      0.00000000	     -1.93723293	    -10.20777046	    -24.03222663	      6.03240362	      0.10528530	     15.08644574	     -8.90082940	      0.00000000	      1.10508633	      0.40273755	     -0.46876504	      2.05225582	      0.53564094	     -0.49806286	      1.81554633	      0.97921607	     -0.49806286	      1.26300317	      0.97921607	     -0.41016941	      1.02618317	      0.82126241	     -0.38087160	      0.63144633	      0.62384046	     -0.35157378	      7.89352114	      4.55584769	     -2.60713054	      0.00000000	      0.00000000	     22.67073232	      1.56507576	      3.42935937	     -4.66257498	    -13.33366670	      4.24035856	     23.67661503	     89.99559364	      0.00000000	      0.00000000	    -14.81597635	     -7.94887161	    -23.97591805	     29.46538019	     89.99559364	      0.00000000	      0.00000000
